<svg width="26" height="26" viewBox="0 0 26 26" fill="none" xmlns="http://www.w3.org/2000/svg">
<path d="M9.03876 1.62778C8.87715 1.62778 8.72216 1.69197 8.60788 1.80625C8.49361 1.92052 8.4294 2.07552 8.4294 2.23713V4.67306H6.90597C5.67874 4.67306 4.67178 5.68002 4.67178 6.90731V8.4317H2.23508C2.07347 8.4317 1.91848 8.4959 1.8042 8.61017C1.68993 8.72445 1.62573 8.87945 1.62573 9.04106C1.62573 9.20267 1.68993 9.35766 1.8042 9.47194C1.91848 9.58621 2.07347 9.65041 2.23508 9.65041H4.67178V12.4914H2.23508C2.07347 12.4914 1.91848 12.5556 1.8042 12.6699C1.68993 12.7842 1.62573 12.9392 1.62573 13.1008C1.62573 13.2624 1.68993 13.4174 1.8042 13.5316C1.91848 13.6459 2.07347 13.7101 2.23508 13.7101H4.67178V16.3507H2.23508C2.07347 16.3507 1.91848 16.4149 1.8042 16.5292C1.68993 16.6434 1.62573 16.7984 1.62573 16.96C1.62573 17.1217 1.68993 17.2766 1.8042 17.3909C1.91848 17.5052 2.07347 17.5694 2.23508 17.5694H4.67178V19.0944C4.67178 20.3217 5.67874 21.3286 6.90597 21.3286H8.4294V23.7645C8.4294 23.9261 8.49361 24.0811 8.60788 24.1954C8.72216 24.3096 8.87715 24.3738 9.03876 24.3738C9.20037 24.3738 9.35535 24.3096 9.46963 24.1954C9.58391 24.0811 9.64811 23.9261 9.64811 23.7645V21.3286H12.4918V23.7645C12.4918 23.9261 12.556 24.0811 12.6702 24.1953C12.7845 24.3096 12.9395 24.3738 13.1011 24.3738C13.2627 24.3738 13.4177 24.3096 13.5319 24.1954C13.6462 24.0811 13.7104 23.9261 13.7104 23.7645V21.3286H16.351V23.7645C16.351 23.9261 16.4152 24.0811 16.5295 24.1954C16.6437 24.3096 16.7987 24.3738 16.9603 24.3738C17.1219 24.3738 17.2769 24.3096 17.3912 24.1954C17.5055 24.0811 17.5697 23.9261 17.5697 23.7645V21.3286H19.0931C20.3204 21.3286 21.3273 20.3217 21.3273 19.0944V17.5694H23.7638C23.9254 17.5694 24.0804 17.5052 24.1946 17.3909C24.3089 17.2766 24.3731 17.1217 24.3731 16.96C24.3731 16.7984 24.3089 16.6434 24.1946 16.5292C24.0804 16.4149 23.9254 16.3507 23.7638 16.3507H21.3273V13.7101H23.7638C23.9254 13.7101 24.0804 13.6459 24.1946 13.5316C24.3089 13.4174 24.3731 13.2624 24.3731 13.1008C24.3731 12.9392 24.3089 12.7842 24.1946 12.6699C24.0804 12.5556 23.9254 12.4914 23.7638 12.4914H21.3273V9.65041H23.7638C23.9254 9.65041 24.0804 9.58621 24.1946 9.47194C24.3089 9.35766 24.3731 9.20267 24.3731 9.04106C24.3731 8.87945 24.3089 8.72445 24.1946 8.61017C24.0804 8.4959 23.9254 8.4317 23.7638 8.4317H21.3273V6.90731C21.3273 5.68002 20.3204 4.67306 19.0931 4.67306H17.5697V2.23713C17.5697 2.07552 17.5055 1.92052 17.3912 1.80625C17.2769 1.69197 17.1219 1.62778 16.9603 1.62778C16.7987 1.62778 16.6437 1.69197 16.5295 1.80625C16.4152 1.92052 16.351 2.07552 16.351 2.23713V4.67306H13.7104V2.23713C13.7104 2.07552 13.6462 1.92052 13.5319 1.80625C13.4177 1.69197 13.2627 1.62778 13.1011 1.62778C12.9395 1.6278 12.7845 1.69201 12.6702 1.80629C12.556 1.92056 12.4918 2.07554 12.4918 2.23713V4.67306H9.64811V2.23713C9.64811 2.07552 9.58391 1.92052 9.46963 1.80625C9.35535 1.69197 9.20037 1.62778 9.03876 1.62778ZM6.90597 5.89167H19.093C19.6662 5.89167 20.1087 6.33416 20.1087 6.90731V19.0944C20.1087 19.6675 19.6662 20.1098 19.093 20.1098H6.90597C6.33278 20.1098 5.89039 19.6675 5.89039 19.0944V6.90731C5.89039 6.33416 6.33278 5.89167 6.90597 5.89167Z" fill="white"/>
<path d="M7.72363 7.72131V18.2773H18.2796V7.72131H7.72363ZM15.6757 10.2792C15.8373 10.2792 15.9923 10.3434 16.1066 10.4576C16.2208 10.5719 16.285 10.7269 16.285 10.8885V15.1C16.285 15.2616 16.2208 15.4166 16.1066 15.5308C15.9923 15.6451 15.8373 15.7093 15.6757 15.7093C15.5957 15.7093 15.5164 15.6936 15.4425 15.6629C15.3685 15.6323 15.3014 15.5874 15.2448 15.5309C15.1882 15.4743 15.1433 15.4071 15.1127 15.3332C15.082 15.2592 15.0663 15.18 15.0663 15.1V10.8885C15.0663 10.8085 15.082 10.7293 15.1127 10.6553C15.1433 10.5814 15.1882 10.5142 15.2448 10.4576C15.3014 10.401 15.3685 10.3562 15.4425 10.3255C15.5164 10.2949 15.5957 10.2792 15.6757 10.2792ZM10.3276 10.2793H13.1713C13.3329 10.2793 13.4879 10.3435 13.6022 10.4578C13.7164 10.572 13.7806 10.727 13.7806 10.8886V15.1104C13.7806 15.272 13.7165 15.427 13.6022 15.5413C13.4879 15.6556 13.3329 15.7198 13.1713 15.7198C13.0097 15.7198 12.8547 15.6556 12.7404 15.5413C12.6261 15.427 12.5619 15.272 12.5619 15.1104V14.0744H10.937V15.1C10.937 15.2616 10.8728 15.4166 10.7585 15.5308C10.6442 15.6451 10.4892 15.7093 10.3276 15.7093C10.166 15.7093 10.011 15.6451 9.89673 15.5308C9.78245 15.4166 9.71825 15.2616 9.71825 15.1V10.8886C9.71826 10.727 9.78246 10.572 9.89674 10.4578C10.011 10.3435 10.166 10.2793 10.3276 10.2793ZM10.937 11.498V12.8555H12.5619V11.498H10.937Z" fill="white"/>
</svg>
